HIERARCHY
ROOT Hips
{
	OFFSET 0.000000 0.000000 0.000000
	CHANNELS 6 Xposition Yposition Zposition Zrotation Yrotation Xrotation 
	JOINT LHipJoint
	{
		OFFSET 0.000000 0.000000 0.000000
		CHANNELS 3 Zrotation Yrotation Xrotation
		JOINT LeftUpLeg
		{
			OFFSET 1.363060 -1.794630 0.839290
			CHANNELS 3 Zrotation Yrotation Xrotation
			JOINT LeftLeg
			{
				OFFSET 2.448110 -6.726130 0.000000
				CHANNELS 3 Zrotation Yrotation Xrotation
				JOINT LeftFoot
				{
					OFFSET 2.562200 -7.039590 0.000000
					CHANNELS 3 Zrotation Yrotation Xrotation
					JOINT LeftToeBase
					{
						OFFSET 0.157640 -0.433110 2.322550
						CHANNELS 3 Zrotation Yrotation Xrotation
						End Site
						{
							OFFSET 0.000000 0.000000 0.000000
						}
					}
				}
			}
		}
	}
	JOINT RHipJoint
	{
		OFFSET 0.000000 0.000000 0.000000
		CHANNELS 3 Zrotation Yrotation Xrotation
		JOINT RightUpLeg
		{
			OFFSET -1.305520 -1.794630 0.839290
			CHANNELS 3 Zrotation Yrotation Xrotation
			JOINT RightLeg
			{
				OFFSET -2.542530 -6.985550 0.000000
				CHANNELS 3 Zrotation Yrotation Xrotation
				JOINT RightFoot
				{
					OFFSET -2.568260 -7.056230 0.000000
					CHANNELS 3 Zrotation Yrotation Xrotation
					JOINT RightToeBase
					{
						OFFSET -0.164730 -0.452590 2.363150
						CHANNELS 3 Zrotation Yrotation Xrotation
						End Site
						{
							OFFSET 0.000000 0.000000 0.000000
						}
					}
				}
			}
		}
	}
}
MOTION
Frames: 14
Frame Time: 0.008333
-12.285284 17.200710 -0.784981 -11.985162 89.353310 22.076023 -11.769942 1.064454 -4.203504 -9.321688 8.967520 -28.653275 -1.860697 2.246340 35.865893 0.542184 1.622910 3.747948 0.282100 0.000000 -70.239700 6.819376 0.673270 0.756516 18.122142 4.171955 -58.718278 5.194956 -0.141536 16.703784 -0.739866 -0.416933 -8.806943 -0.333500 -0.000001 -59.821300
-12.075837 17.190922 -0.766128 -18.574638 89.486383 15.338132 -11.662320 1.196325 -4.252700 -9.109487 9.159439 -28.355689 -1.776347 2.337520 36.694312 0.551363 1.484626 4.872563 0.262100 -0.000000 -69.775000 6.986940 0.763972 0.719454 18.351717 3.852739 -57.957738 5.150995 0.038898 15.635751 -0.968721 -1.454471 -8.740793 -0.417001 -0.000000 -58.862400
-11.866614 17.169198 -0.746145 -25.146274 89.704647 8.592913 -11.545664 1.297554 -4.302837 -8.948692 9.317561 -28.106065 -1.673494 2.415965 37.720831 0.571937 1.460329 5.785497 0.257400 -0.000000 -68.771500 7.168109 0.820419 0.681018 18.445915 3.514937 -57.292493 5.060245 0.133981 15.006866 -1.198159 -2.474086 -8.688172 -0.500899 0.000000 -57.478900
-11.657761 17.135422 -0.725349 -31.465872 89.998918 2.082259 -11.447294 1.366209 -4.351040 -8.842880 9.447739 -27.919679 -1.553433 2.485251 38.947708 0.603930 1.568934 6.468588 0.278000 0.000000 -67.243600 7.336729 0.837910 0.642628 18.403555 3.178704 -56.754164 4.932842 0.141345 14.853204 -1.415108 -3.418842 -8.652101 -0.579600 -0.000000 -55.708400
-11.449507 17.089698 -0.704085 142.769851 89.658726 176.118799 -11.383985 1.408531 -4.394568 -8.787234 9.561336 -27.815287 -1.421841 2.552947 40.373315 0.647809 1.823011 6.903735 0.329900 0.000000 -65.227399 7.476397 0.823588 0.603212 18.237310 2.870675 -56.372110 4.778660 0.061619 15.217221 -1.609891 -4.241505 -8.658832 -0.644200 0.000000 -53.538400
-11.242155 17.032611 -0.682884 137.841337 89.301921 170.986011 -11.357504 1.435028 -4.431658 -8.766144 9.669375 -27.800476 -1.285111 2.626832 41.986868 0.704054 2.227072 7.083920 0.414200 0.000000 -62.835800 7.584633 0.791045 0.553889 17.986969 2.595233 -56.165030 4.609628 -0.103663 16.135604 -1.772224 -4.888787 -8.754598 -0.680800 0.000000 -50.924101
-11.036035 16.964554 -0.662144 133.821750 88.958628 166.770223 -11.359377 1.451504 -4.462145 -8.763058 9.779980 -27.898828 -1.147328 2.712101 43.790143 0.771702 2.771249 6.995344 0.525400 -0.000000 -60.100300 7.666671 0.751446 0.497361 17.679766 2.379610 -56.171023 4.429456 -0.352722 17.647053 -1.903216 -5.349772 -9.003924 -0.675500 -0.000000 -47.781200
-10.831695 16.886801 -0.642345 130.739062 88.641773 163.486334 -11.380228 1.462296 -4.486551 -8.757214 9.891485 -28.090189 -1.009424 2.810306 45.757194 0.850365 3.442104 6.656627 0.654300 0.000000 -57.215900 7.730996 0.714775 0.413231 17.377827 2.172701 -56.384534 4.248836 -0.682189 19.754653 -1.993759 -5.576057 -9.471426 -0.611600 -0.000001 -44.045800
-10.629658 16.800559 -0.623909 128.516784 88.357188 161.050819 -11.413176 1.467084 -4.506532 -8.733715 9.998351 -28.360528 -0.870573 2.921183 47.866684 0.938919 4.216954 6.089275 0.787700 -0.000001 -54.362700 7.784328 0.687576 0.289103 17.123038 1.936319 -56.794296 4.072068 -1.082888 22.425162 -2.043098 -5.561426 -10.204159 -0.483100 0.000000 -39.734700
-10.430422 16.706877 -0.606918 126.970219 88.107450 159.283114 -11.454773 1.461762 -4.525509 -8.685730 10.095919 -28.711588 -0.729759 3.044044 50.108046 1.034449 5.058800 5.302218 0.908100 -0.000000 -51.509300 7.829965 0.674090 0.126924 16.922222 1.672528 -57.392287 3.893835 -1.540582 25.610483 -2.064643 -5.358171 -11.245024 -0.295000 0.000000 -34.749300
-10.234634 16.607711 -0.591719 126.074217 87.898191 158.144430 -11.502674 1.444790 -4.548223 -8.598797 10.175251 -29.113345 -0.585625 3.178334 52.444360 1.135535 5.938032 4.345079 1.002100 0.000000 -48.922500 7.872687 0.678244 -0.085899 16.809765 1.337383 -58.100950 3.718324 -2.029932 29.156730 -2.061977 -5.002878 -12.556935 -0.066800 0.000000 -29.462400
-10.042741 16.504773 -0.578500 125.778172 87.742987 157.590203 -11.555472 1.412553 -4.580637 -8.461251 10.234315 -29.565198 -0.437686 3.324591 54.855332 1.238803 6.815170 3.248472 1.056800 0.000000 -46.631200 7.913844 0.699431 -0.341461 16.788457 0.953099 -58.858630 3.542626 -2.524106 32.910437 -2.052578 -4.583583 -14.095143 0.179200 0.000001 -24.158800
-9.855124 16.399958 -0.567461 126.113671 87.663135 157.659228 -11.610897 1.363117 -4.628370 -8.258453 10.274229 -30.070414 -0.285956 3.484463 57.319264 1.340604 7.653201 2.045752 1.063600 -0.000000 -44.642000 7.954540 0.734387 -0.629624 16.863840 0.553621 -59.593286 3.366219 -2.997168 36.701132 -2.052088 -4.185704 -15.781879 0.423800 -0.000001 -19.318700
-9.671994 16.295234 -0.558784 127.162269 87.682757 158.440763 -11.665706 1.297098 -4.695076 -7.977552 10.297579 -30.634306 -0.130480 3.660098 59.812980 1.437594 8.422746 0.774833 1.020700 -0.000000 -42.987300 7.995345 0.779112 -0.941652 17.044275 0.173552 -60.239277 3.192382 -3.429782 40.385447 -2.072244 -3.867558 -17.562150 0.661900 -0.000000 -15.186500
